HIERARCHY
ROOT Hips
{
	OFFSET 0.000000 0.000000 0.000000
	CHANNELS 6 Xposition Yposition Zposition Xrotation Yrotation Zrotation
	JOINT LeftUpLeg_virtual
	{
		OFFSET 0.000000 0.000000 0.000000
		CHANNELS 3 Xrotation Yrotation Zrotation
		JOINT LeftUpLeg
		{
			OFFSET 15.427100 -6.655098 0.678600
			CHANNELS 3 Xrotation Yrotation Zrotation
			JOINT LeftLeg
			{
				OFFSET 4.081073 -39.591068 13.024000
				CHANNELS 3 Xrotation Yrotation Zrotation
				JOINT LeftFoot
				{
					OFFSET -4.081074 -37.707932 -15.979700
					CHANNELS 3 Xrotation Yrotation Zrotation
					JOINT LeftToeBase
					{
						OFFSET 5.346399 -15.068900 20.645000
						CHANNELS 3 Xrotation Yrotation Zrotation
						JOINT LeftToe_End
						{
							OFFSET 2.754700 0.931300 11.300900
							CHANNELS 3 Xrotation Yrotation Zrotation
							End Site
							{
								OFFSET 0 0 0
							}
						}
					}
				}
			}
		}
	}
	JOINT RightUpLeg_virtual
	{
		OFFSET 0.000000 0.000000 0.000000
		CHANNELS 3 Xrotation Yrotation Zrotation
		JOINT RightUpLeg
		{
			OFFSET -15.569500 -6.655098 0.678600
			CHANNELS 3 Xrotation Yrotation Zrotation
			JOINT RightLeg
			{
				OFFSET -4.081825 -39.591045 13.023800
				CHANNELS 3 Xrotation Yrotation Zrotation
				JOINT RightFoot
				{
					OFFSET 4.081824 -37.707954 -15.979600
					CHANNELS 3 Xrotation Yrotation Zrotation
					JOINT RightToeBase
					{
						OFFSET -5.346400 -15.068900 20.645000
						CHANNELS 3 Xrotation Yrotation Zrotation
						JOINT RightToe_End
						{
							OFFSET -2.754700 0.931300 11.300900
							CHANNELS 3 Xrotation Yrotation Zrotation
							End Site
							{
								OFFSET 0 0 0
							}
						}
					}
				}
			}
		}
	}
	JOINT Spine_virtual
	{
		OFFSET 0.000000 0.000000 0.000000
		CHANNELS 3 Xrotation Yrotation Zrotation
		JOINT Spine
		{
			OFFSET -0.279200 12.230698 -2.892100
			CHANNELS 3 Xrotation Yrotation Zrotation
			JOINT Spine1
			{
				OFFSET -0.232667 10.192268 -1.242267
				CHANNELS 3 Xrotation Yrotation Zrotation
				JOINT Spine1_split
				{
					OFFSET -0.232667 10.192268 -1.242267
					CHANNELS 3 Xrotation Yrotation Zrotation
					JOINT Spine2
					{
						OFFSET -0.232667 10.192268 -1.242267
						CHANNELS 3 Xrotation Yrotation Zrotation
						JOINT Neck_virtual
						{
							OFFSET 0.000000 0.000000 0.000000
							CHANNELS 3 Xrotation Yrotation Zrotation
							JOINT Neck
							{
								OFFSET -0.418800 17.814194 8.416900
								CHANNELS 3 Xrotation Yrotation Zrotation
								JOINT Head
								{
									OFFSET 0.000000 7.031097 3.806800
									CHANNELS 3 Xrotation Yrotation Zrotation
									JOINT HeadTop_End
									{
										OFFSET 0.000000 24.646606 12.978600
										CHANNELS 3 Xrotation Yrotation Zrotation
										End Site
										{
											OFFSET 0 0 0
										}
									}
								}
							}
						}
						JOINT LeftShoulder_virtual
						{
							OFFSET 0.000000 0.000000 0.000000
							CHANNELS 3 Xrotation Yrotation Zrotation
							JOINT LeftShoulder
							{
								OFFSET 8.476499 7.247704 -3.868750
								CHANNELS 3 Xrotation Yrotation Zrotation
								JOINT LeftShoulder_split
								{
									OFFSET 8.476499 7.247704 -3.868750
									CHANNELS 3 Xrotation Yrotation Zrotation
									JOINT LeftArm
									{
										OFFSET 9.308998 -2.777710 0.208600
										CHANNELS 3 Xrotation Yrotation Zrotation
										JOINT LeftForeArm
										{
											OFFSET 29.972298 0.000000 0.000000
											CHANNELS 3 Xrotation Yrotation Zrotation
											JOINT LeftHand
											{
												OFFSET 26.026505 0.000000 0.000000
												CHANNELS 3 Xrotation Yrotation Zrotation
												End Site
												{
													OFFSET 0 0 0
												}
											}
										}
									}
								}
							}
						}
						JOINT RightShoulder_virtual
						{
							OFFSET 0.000000 0.000000 0.000000
							CHANNELS 3 Xrotation Yrotation Zrotation
							JOINT RightShoulder
							{
								OFFSET -7.570500 7.247704 -3.868750
								CHANNELS 3 Xrotation Yrotation Zrotation
								JOINT RightShoulder_split
								{
									OFFSET -7.570500 7.247704 -3.868750
									CHANNELS 3 Xrotation Yrotation Zrotation
									JOINT RightArm
									{
										OFFSET -9.308998 -2.777710 0.208500
										CHANNELS 3 Xrotation Yrotation Zrotation
										JOINT RightForeArm
										{
											OFFSET -29.972300 0.000000 0.000000
											CHANNELS 3 Xrotation Yrotation Zrotation
											JOINT RightHand
											{
												OFFSET -26.026505 0.000000 0.000000
												CHANNELS 3 Xrotation Yrotation Zrotation
												End Site
												{
													OFFSET 0 0 0
												}
											}
										}
									}
								}
							}
						}
					}
				}
			}
		}
	}
}
MOTION
Frames: 9
Frame Time: 0.03333333
-1.246398 91.202347 0.553059 0.000000 0.000000 0.000000 4.627285 -12.355709 0.149942 -16.177267 9.219542 15.185486 18.325710 5.216070 1.059762 -2.257496 5.116671 -11.672078 0.615733 -2.953635 -6.419725 0.000000 0.000000 0.000000 4.773735 -12.022228 0.444643 -6.274619 -7.387131 -10.225818 13.457233 -4.694175 -2.059358 -13.596928 0.313634 9.407161 -6.891603 3.175031 4.187665 0.000000 0.000000 0.000000 5.528091 -10.155849 0.382542 10.018430 -0.363109 -0.014017 1.897361 3.803556 -0.016873 0.155264 -1.927885 0.402491 0.000000 0.000000 0.000000 -8.755590 2.398955 1.319935 -8.748116 5.845858 -6.274059 9.772200 -4.490633 13.704114 0.000000 0.000000 0.000000 -9.216317 2.353087 1.048256 -1.097751 5.834016 -4.589804 1.667698 -2.566244 -0.506453 -5.736710 -0.819906 -68.580256 -0.069253 -19.051293 -0.182933 0.000000 0.000000 0.000000 -9.005702 2.031880 0.984477 -1.438166 0.215470 5.592921 -3.313264 -3.100325 -0.655827 7.594982 10.707289 71.179703 -1.301999 23.423152 2.773728 0.000000 0.000000 0.000000 
-0.611863 90.982086 0.516830 0.000000 0.000000 0.000000 4.677237 -12.625358 0.248655 -16.136240 9.100127 14.823541 18.413879 5.320216 0.989470 -2.681742 5.234984 -11.564676 0.499526 -2.978154 -6.207246 0.000000 0.000000 0.000000 4.807229 -11.858920 0.526075 -6.532660 -7.757770 -10.465422 13.605849 -4.851285 -2.135234 -14.272744 0.048809 8.673256 -5.588241 3.213351 4.086731 0.000000 0.000000 0.000000 5.468413 -10.486860 0.351869 10.010192 -0.483096 0.146870 1.966812 3.801126 -0.071327 -0.162077 -1.942436 0.287136 0.000000 0.000000 0.000000 -8.818566 2.328509 1.285507 -8.505887 5.351706 -6.215555 9.918122 -5.064926 14.431558 0.000000 0.000000 0.000000 -9.171728 2.313974 0.948597 -1.100992 6.000678 -4.657551 1.727781 -1.811766 -0.572370 -5.879112 -0.480043 -68.654234 -0.012439 -18.796418 -0.092901 0.000000 0.000000 0.000000 -8.963435 1.998929 0.962570 -1.375801 0.048162 5.675933 -2.616599 -1.735706 -1.123213 8.454319 11.238477 70.722600 -1.157277 24.059951 2.663678 0.000000 0.000000 0.000000 
0.269302 90.678291 0.658478 0.000000 0.000000 0.000000 4.646619 -12.977255 0.324851 -16.407533 9.174769 14.495885 19.008720 5.382590 0.935084 -3.344325 5.220603 -11.548917 0.348050 -2.996839 -5.920957 0.000000 0.000000 0.000000 4.789601 -11.898848 0.606275 -6.966781 -8.092987 -10.856657 13.727759 -4.788890 -2.279501 -14.556769 -0.457193 8.566903 -5.410736 3.171407 3.870968 0.000000 0.000000 0.000000 5.512013 -10.953576 0.385856 10.115262 -0.693803 0.342762 2.059778 3.851126 -0.143455 -0.309495 -1.767791 0.293980 0.000000 0.000000 0.000000 -8.816928 2.329042 1.221091 -8.760273 3.992836 -5.996496 10.723719 -7.400265 15.634899 0.000000 0.000000 0.000000 -9.169497 2.302074 0.837271 -1.188230 6.087535 -4.561834 1.812632 -1.075282 -0.486336 -5.320524 0.016212 -68.712168 -0.022574 -19.269767 -0.083629 0.000000 0.000000 0.000000 -8.931183 2.007969 0.938918 -1.254383 -0.361038 5.818502 -2.091400 -0.664905 -1.758239 10.201074 12.417659 69.995936 -0.815433 24.994435 2.365732 0.000000 0.000000 0.000000 
1.261287 90.362762 0.865391 0.000000 0.000000 0.000000 4.599817 -13.402167 0.376326 -16.981647 9.440022 14.246298 19.915969 5.467077 0.904535 -4.132584 5.130714 -11.544764 0.189285 -3.009592 -5.583115 0.000000 0.000000 0.000000 4.752416 -12.126267 0.658715 -7.539906 -8.294226 -11.331519 13.790414 -4.391180 -2.366543 -14.088777 -0.941002 9.308744 -6.381914 3.052421 3.612481 0.000000 0.000000 0.000000 5.706168 -11.523960 0.431245 10.309511 -0.938789 0.534657 2.176545 3.905835 -0.233961 -0.237280 -1.523659 0.424510 0.000000 0.000000 0.000000 -8.723797 2.369811 1.123897 -9.528409 1.980126 -5.681554 11.970408 -11.104142 17.029929 0.000000 0.000000 0.000000 -9.177719 2.285956 0.716681 -1.344853 6.017593 -4.397574 2.045086 -0.544266 -0.347763 -3.997086 0.571972 -68.736046 -0.048534 -20.551180 -0.154042 0.000000 0.000000 0.000000 -8.912132 2.029588 0.912755 -1.063641 -1.015977 6.026602 -1.695033 -0.212566 -2.268465 12.346896 13.810493 69.220129 -0.381322 26.095078 1.962007 0.000000 0.000000 0.000000 
2.339283 90.102646 1.051964 0.000000 0.000000 0.000000 4.604261 -13.952555 0.377335 -17.756026 9.874944 14.100273 20.932291 5.694957 0.907077 -4.970207 5.135561 -11.428915 0.047112 -3.016286 -5.234802 0.000000 0.000000 0.000000 4.772998 -12.543277 0.663392 -8.012795 -8.340176 -11.722501 13.580313 -3.788617 -2.391150 -13.239782 -1.297636 10.278423 -7.116843 2.943540 3.416047 0.000000 0.000000 0.000000 6.035241 -12.290143 0.452795 10.542729 -1.141857 0.707350 2.311922 3.889916 -0.336168 0.028819 -1.032438 0.730654 0.000000 0.000000 0.000000 -8.547305 2.387698 0.997987 -10.725090 -0.455767 -5.324128 13.416552 -15.502173 18.227586 0.000000 0.000000 0.000000 -9.152886 2.218904 0.614646 -1.532675 5.763988 -4.281294 2.385177 -0.110940 -0.238392 -1.907468 1.201233 -68.694901 -0.034092 -22.586876 -0.266916 0.000000 0.000000 0.000000 -8.888356 2.017394 0.871625 -0.803856 -1.865514 6.311929 -1.419607 -0.179712 -2.501036 14.272776 15.060893 68.580686 0.040540 27.298188 1.563400 0.000000 0.000000 0.000000 
3.387549 89.938690 1.184769 0.000000 0.000000 0.000000 4.685114 -14.529443 0.303773 -18.606596 10.446817 14.068856 21.865358 6.145200 0.963575 -5.903235 5.394638 -11.105617 -0.054153 -3.012894 -4.933530 0.000000 0.000000 0.000000 4.849680 -13.114672 0.569020 -8.350666 -8.218445 -11.963356 12.988948 -3.165705 -2.370954 -12.584394 -1.493137 10.759515 -6.910500 2.910713 3.375178 0.000000 0.000000 0.000000 6.419325 -13.252154 0.410237 10.738546 -1.230085 0.867315 2.460667 3.740650 -0.444845 0.210982 -0.643625 0.987989 0.000000 0.000000 0.000000 -8.291961 2.311392 0.853609 -12.208330 -2.983533 -4.974177 14.763129 -19.957485 18.813770 0.000000 0.000000 0.000000 -9.063630 2.042589 0.528779 -1.715348 5.372578 -4.306400 2.662668 0.326256 -0.155816 0.706240 1.874507 -68.586717 0.056302 -25.258490 -0.381985 0.000000 0.000000 0.000000 -8.838534 1.896207 0.794537 -0.498471 -2.786495 6.635603 -1.292073 -0.343040 -2.500381 15.422945 16.033811 68.182616 0.381933 28.497798 1.262243 0.000000 0.000000 0.000000 
4.411292 89.864548 1.238701 0.000000 0.000000 0.000000 4.847749 -15.087348 0.144010 -19.438621 11.048661 14.084951 22.660165 6.815633 1.107399 -6.931810 5.976949 -10.596990 -0.145248 -2.999396 -4.708582 0.000000 0.000000 0.000000 5.034862 -13.826433 0.408014 -8.722593 -7.891142 -12.114933 12.344390 -2.497273 -2.323564 -12.123470 -1.368957 10.538276 -6.185649 2.984313 3.499202 0.000000 0.000000 0.000000 6.831909 -14.298274 0.335200 10.863495 -1.152181 1.013646 2.627083 3.402630 -0.552512 0.227351 -0.458584 1.106990 0.000000 0.000000 0.000000 -7.980486 2.069710 0.695650 -13.822589 -5.391909 -4.686695 15.828443 -24.129108 18.563783 0.000000 0.000000 0.000000 -8.874519 1.711959 0.457424 -1.877811 4.984094 -4.498044 2.929907 0.796520 -0.057406 3.617233 2.571592 -68.382611 0.201698 -28.451424 -0.453732 0.000000 0.000000 0.000000 -8.746916 1.613299 0.674110 -0.183870 -3.714151 6.876517 -1.173984 -0.601919 -2.405871 15.535660 16.904139 68.043943 0.636470 29.777962 1.091133 0.000000 0.000000 0.000000 
5.415945 89.850815 1.241985 0.000000 0.000000 0.000000 5.070052 -15.651669 -0.091872 -20.234253 11.564053 14.115767 23.407128 7.630407 1.333777 -7.973133 6.827355 -10.025234 -0.310352 -2.985502 -4.525311 0.000000 0.000000 0.000000 5.290768 -14.698550 0.240745 -9.462401 -7.329689 -12.223292 12.169404 -1.747500 -2.193565 -11.346259 -0.811695 9.969775 -5.775570 3.127654 3.807233 0.000000 0.000000 0.000000 7.197003 -15.337975 0.280131 10.915848 -0.890151 1.139372 2.824846 2.861975 -0.658919 0.107566 -0.390103 1.087680 0.000000 0.000000 0.000000 -7.660245 1.616868 0.536113 -15.362847 -7.533536 -4.470205 16.433978 -27.539608 17.408421 0.000000 0.000000 0.000000 -8.575032 1.187978 0.391517 -1.995497 4.722854 -4.845083 3.239676 1.265284 0.101269 6.534475 3.304630 -68.120024 0.337718 -31.754065 -0.459947 0.000000 0.000000 0.000000 -8.585398 1.128852 0.514708 0.112988 -4.539649 6.969000 -1.101227 -0.923187 -2.185278 14.703046 18.035936 67.982471 0.836524 31.335737 1.040691 0.000000 0.000000 0.000000 
6.381348 89.779114 1.166553 0.000000 0.000000 0.000000 5.312152 -16.206702 -0.318737 -20.999130 11.941811 14.053225 24.189436 8.448420 1.623978 -9.031999 7.761763 -9.522583 -0.590375 -2.981396 -4.328145 0.000000 0.000000 0.000000 5.581955 -15.595574 0.093867 -10.840383 -6.609321 -12.215600 12.791372 -0.832314 -1.991385 -10.220217 0.167094 9.400675 -6.513413 3.237924 4.345610 0.000000 0.000000 0.000000 7.486724 -16.331875 0.274051 10.939941 -0.461482 1.240842 3.055379 2.126974 -0.755171 -0.125953 -0.359246 0.983224 0.000000 0.000000 0.000000 -7.353658 0.944331 0.391118 -16.662501 -9.311716 -4.322391 16.484557 -30.074795 15.551644 0.000000 0.000000 0.000000 -8.191459 0.471420 0.312380 -2.059667 4.682529 -5.279382 3.510269 1.465447 0.281888 9.171254 4.130997 -67.870825 0.374935 -34.697576 -0.418181 0.000000 0.000000 0.000000 -8.345608 0.432094 0.337070 0.369645 -5.233720 6.917713 -1.006401 -1.204747 -1.915367 13.268647 19.717680 67.872403 0.978351 33.230646 1.099487 0.000000 0.000000 0.000000 
